<svg width="40" height="40" viewBox="0 0 40 40" fill="none" xmlns="http://www.w3.org/2000/svg">
<path d="M15.4467 34.5562C15.0483 34.5562 14.6667 34.3993 14.3723 34.1153C13.8307 33.5921 13.2899 33.0481 12.7667 32.5217C12.5363 32.2897 12.3059 32.0578 12.0739 31.8265L11.6195 31.3729L11.4499 31.5425C11.3275 31.6649 11.2067 31.7833 11.0875 31.9001C10.8091 32.1729 10.5467 32.4313 10.2923 32.7073C10.0955 32.9209 9.91712 33.0161 9.71232 33.0161C9.67232 33.0161 9.62992 33.0121 9.58672 33.0049L6.94112 30.3594C6.89552 30.0986 6.98752 29.8849 7.23872 29.6537C7.51552 29.3993 7.77312 29.1369 8.04672 28.8585C8.16352 28.7393 8.28272 28.6185 8.40432 28.4961L8.57392 28.3265L8.07232 27.8249C7.85072 27.6033 7.62912 27.3817 7.40672 27.1601C6.92592 26.6801 6.42912 26.1849 5.94352 25.6945C5.20192 24.9466 5.20112 24.0913 5.94112 23.3481C6.23632 23.0513 6.53232 22.7561 6.83552 22.4529L7.34592 21.9425L7.28912 21.7961C7.00912 21.0777 7.19552 20.4329 7.86032 19.8257C8.13712 19.5729 8.40192 19.3025 8.65792 19.0409C8.81792 18.8777 8.98352 18.7081 9.14912 18.5465C9.48112 18.2225 9.87232 18.0505 10.2795 18.0505C10.6867 18.0505 11.0795 18.2233 11.4091 18.5505C12.1131 19.2489 12.8251 19.9625 13.5139 20.6521C13.8147 20.9529 14.1147 21.2545 14.4155 21.5553L14.8611 22.0009L22.0763 14.7857L20.7747 13.4841C20.0907 12.8001 19.4059 12.1161 18.7227 11.4313C17.9323 10.6385 17.9299 9.76735 18.7163 8.97695C18.8515 8.84095 18.9891 8.70655 19.1259 8.57215C19.3995 8.30335 19.6827 8.02495 19.9499 7.73695C20.3579 7.29695 20.7803 7.08255 21.2419 7.08255C21.4451 7.08255 21.6595 7.12575 21.8795 7.21055L22.0251 7.26735L22.1355 7.15695C22.2923 7.00015 22.4467 6.84335 22.5995 6.68815C22.9435 6.33855 23.2683 6.00815 23.6123 5.68735C23.8723 5.44495 24.2131 5.31055 24.5723 5.31055C24.9931 5.31055 25.4043 5.48575 25.7283 5.80415C26.2475 6.31455 26.7707 6.83935 27.2763 7.34735C27.5019 7.57375 27.7275 7.80015 27.9531 8.02655L28.4131 8.48655L28.9931 7.90655C29.1227 7.77695 29.2515 7.64735 29.3803 7.51775C29.6707 7.22575 29.9707 6.92335 30.2707 6.63295C30.4067 6.50095 30.5331 6.43455 30.6451 6.43455C30.7635 6.43455 30.8971 6.50815 31.0427 6.65295C31.7867 7.39295 32.5427 8.14895 33.2907 8.90095C33.5819 9.19375 33.5835 9.40255 33.2939 9.69695C32.9211 10.0761 32.5491 10.4473 32.1547 10.8393C31.9819 11.0113 31.8075 11.1857 31.6291 11.3633L31.4595 11.5329L31.8931 11.9665C32.0595 12.1329 32.2275 12.3057 32.3891 12.4729C32.7491 12.8441 33.1219 13.2281 33.5171 13.5801C34.2995 14.2761 34.6467 14.8201 34.6435 15.3417C34.6403 15.8665 34.2675 16.4425 33.5059 17.1033C33.3403 17.2465 33.1899 17.4025 33.0307 17.5673C32.9763 17.6233 32.9211 17.6809 32.8635 17.7393H32.8395L32.7675 17.8385C32.6955 17.9377 32.7203 18.0385 32.7627 18.1689C32.9699 18.8025 32.8387 19.3465 32.3627 19.8321C31.9027 20.3017 31.4235 20.7809 30.8987 21.2969C30.5539 21.6361 30.1539 21.8153 29.7435 21.8153C29.3331 21.8153 28.9307 21.6353 28.5859 21.2937C27.8875 20.6033 27.1827 19.8961 26.5003 19.2129C26.2011 18.9129 25.9019 18.6129 25.6027 18.3137L25.1587 17.8689L17.9435 25.0841L19.2883 26.4281C19.9747 27.1145 20.6611 27.8001 21.3467 28.4873C22.0803 29.2241 22.0835 30.1049 21.3539 30.8433C21.0723 31.1281 20.7883 31.4114 20.5051 31.6937L20.1243 32.0737C19.6011 32.5969 19.2819 32.7738 18.8603 32.7738C18.6619 32.7738 18.4315 32.7362 18.1131 32.6522L17.9795 32.617L17.8819 32.7146C17.7267 32.8698 17.5739 33.0257 17.4219 33.1801C17.0779 33.5297 16.7531 33.8601 16.4091 34.181C16.1507 34.4217 15.8091 34.5546 15.4467 34.5546V34.5562ZM7.93072 22.8497C7.75072 22.8497 7.57792 22.9329 7.40272 23.1033C7.18752 23.3129 6.97312 23.5281 6.76592 23.7369L6.59472 23.9097C6.13392 24.3729 6.13472 24.6705 6.59952 25.1353C7.61472 26.1521 8.63072 27.1673 9.64672 28.1833L11.8315 30.3681C12.8331 31.3697 13.8339 32.3714 14.8363 33.3722C15.0043 33.5394 15.1915 33.6945 15.4259 33.6945C15.6587 33.6945 15.8459 33.541 16.0139 33.3745C16.1867 33.2034 16.3587 33.0313 16.5299 32.8594L16.7011 32.6873C17.2323 32.1553 17.2323 31.8649 16.7027 31.3353C14.0043 28.6369 11.3067 25.9385 8.60832 23.2409L8.56752 23.2001C8.53152 23.1633 8.49472 23.1265 8.45632 23.0913C8.27632 22.9289 8.10352 22.8497 7.92912 22.8497H7.93072ZM7.98992 30.1625L9.79072 31.9633L10.9819 30.7722L9.18112 28.9713L7.98992 30.1625ZM10.2771 18.9145C10.0291 18.9145 9.83552 19.0777 9.71072 19.2001C9.34832 19.5569 8.98352 19.9233 8.63152 20.2769L8.38352 20.5257C7.90192 21.0081 7.90352 21.3193 8.38832 21.8049C9.60032 23.0177 10.8123 24.2297 12.0251 25.4417L14.5275 27.9441C15.7475 29.1642 16.9675 30.3841 18.1883 31.6033C18.3459 31.7609 18.5403 31.9217 18.7843 31.9217C19.0259 31.9217 19.2171 31.7649 19.3715 31.6113C19.9299 31.0577 20.3531 30.6337 20.7459 30.2361C21.1299 29.8473 21.1283 29.4857 20.7419 29.0985C17.4451 25.7993 14.1467 22.5017 10.8483 19.2049C10.7235 19.0801 10.5275 18.9137 10.2771 18.9137V18.9145ZM15.5163 22.6409L17.3099 24.4353L24.5035 17.2417L22.7099 15.4481L15.5163 22.6417V22.6409ZM21.2507 7.94495C21.0003 7.94495 20.7971 8.11375 20.6315 8.27855L20.5883 8.32095C20.1587 8.74815 19.7147 9.19055 19.2811 9.62975C18.8931 10.0225 18.8923 10.3849 19.2787 10.7713C22.4931 13.9889 25.8219 17.3177 29.1731 20.6657C29.2971 20.7897 29.4915 20.9545 29.7435 20.9545C29.9947 20.9545 30.1891 20.7905 30.3147 20.6673C30.6459 20.3409 30.9787 20.0065 31.3011 19.6833L31.6187 19.3649C32.1315 18.8521 32.1323 18.5401 31.6227 18.0305C30.3363 16.7441 29.0499 15.4569 27.7635 14.1705L25.5075 11.9145C24.2955 10.7025 23.0835 9.48975 21.8707 8.27855C21.7051 8.11295 21.5027 7.94415 21.2515 7.94415L21.2507 7.94495ZM24.6067 6.17535C24.3619 6.17535 24.1683 6.33855 24.0435 6.46095C23.8419 6.65935 23.6427 6.85935 23.4435 7.05935L23.2843 7.21935C22.8043 7.70095 22.8019 7.99295 23.2771 8.46815C24.2531 9.44495 25.2299 10.4217 26.2067 11.3985C26.2067 11.3985 30.4803 15.6721 31.4435 16.6345C31.6579 16.8489 31.8547 17.0257 32.0979 17.0257C32.3427 17.0257 32.5363 16.8521 32.7643 16.6241C32.9779 16.4113 33.1907 16.1977 33.4035 15.9849C33.8987 15.4881 33.8963 15.1841 33.3939 14.6809L27.2395 8.52655L26.6627 7.94895C26.1691 7.45455 25.6747 6.96015 25.1787 6.46735C25.0523 6.34175 24.8547 6.17455 24.6075 6.17455L24.6067 6.17535ZM29.0563 9.08975L30.8603 10.8937L32.4515 9.30255L30.6475 7.49855L29.0563 9.08975Z" fill="white"/>
</svg>
