<svg width="40" height="40" viewBox="0 0 40 40" fill="none" xmlns="http://www.w3.org/2000/svg">
<path d="M3.76953 33.597C3.93033 33.3538 4.15673 33.2762 4.44473 33.2834C5.04473 33.2986 5.64473 33.2882 6.29273 33.2882C5.66153 32.273 5.61353 31.2554 6.08713 30.2498C5.73593 30.0706 5.37993 29.929 5.06793 29.721C4.50473 29.3458 4.48793 28.7586 5.00073 28.3186C6.41193 27.1074 7.82393 25.897 9.23993 24.6914C9.62873 24.3602 9.89993 23.9618 10.0615 23.4762C10.6839 21.6042 11.3175 19.7354 11.9415 17.8634C12.4175 16.437 13.3655 15.5026 14.8047 15.0602C15.8535 14.7378 16.8967 14.4002 17.9423 14.069C17.9895 14.0538 18.0351 14.0354 18.0735 14.021C18.0735 13.9874 18.0775 13.973 18.0735 13.969C17.0719 13.1002 16.7511 11.9794 16.8287 10.6954C16.8711 9.98978 16.8087 9.27378 16.8999 8.57618C17.1199 6.89138 18.6727 5.67378 20.4095 5.76018C22.0839 5.84338 23.4927 7.24018 23.5559 8.91618C23.5887 9.78178 23.5839 10.6498 23.5607 11.5154C23.5351 12.4626 23.1215 13.241 22.4255 13.8738C22.3495 13.9426 22.2711 14.0098 22.1687 14.1002C23.1567 14.4114 24.1055 14.7282 25.0647 15.009C26.6055 15.4594 27.6047 16.4402 28.1023 17.9658C28.7047 19.8114 29.3351 21.6474 29.9463 23.4906C30.1039 23.9658 30.3703 24.3562 30.7511 24.6794C32.1591 25.8786 33.5639 27.081 34.9671 28.285C35.5375 28.7746 35.5063 29.3562 34.8695 29.7658C34.5903 29.9458 34.2743 30.069 33.9695 30.221C34.5815 31.2106 34.5951 32.217 33.9631 33.257C34.0551 33.2682 34.1303 33.2858 34.2055 33.2858C34.7023 33.2882 35.1991 33.281 35.6951 33.2898C36.0327 33.2954 36.2423 33.5002 36.2311 33.7858C36.2199 34.0578 36.0151 34.2282 35.6887 34.2378C35.6255 34.2394 35.5615 34.2378 35.4983 34.2378C25.1631 34.2378 14.8287 34.2378 4.49353 34.2418C4.18953 34.2418 3.92553 34.2106 3.76953 33.913V33.5962V33.597ZM25.6335 21.3754C26.4079 21.037 27.1471 20.713 27.9007 20.3834C27.6431 19.6098 27.3999 18.869 27.1511 18.1298C26.7807 17.0306 26.0423 16.3098 24.9319 15.9666C23.9447 15.6618 22.9599 15.3482 21.9743 15.0346C20.9279 14.7018 19.8535 14.561 18.7903 14.8466C17.4063 15.2186 16.0407 15.6626 14.6799 16.1154C14.0751 16.317 13.5479 16.7186 13.2727 17.2898C12.8559 18.1562 12.5431 19.073 12.1807 19.9826C12.9895 20.3866 13.7199 20.7514 14.4647 21.1242C14.5239 20.9842 14.5695 20.8786 14.6127 20.7722C14.7759 20.3714 14.9343 19.969 15.1015 19.5698C15.1991 19.3354 15.3871 19.2226 15.6343 19.2746C15.8783 19.3258 16.0103 19.4954 16.0127 19.753C16.0127 19.8482 16.0135 19.9434 16.0135 20.0386C16.0135 22.1522 16.0135 24.2658 16.0135 26.3794C16.0135 26.4922 16.0135 26.605 16.0135 26.729H23.9887C23.9887 26.5882 23.9887 26.4642 23.9887 26.3394C23.9887 24.1834 23.9911 22.0274 23.9863 19.8714C23.9863 19.5746 24.0583 19.333 24.3759 19.2738C24.6951 19.2138 24.8503 19.4194 24.9559 19.6922C25.1695 20.2418 25.3951 20.7866 25.6327 21.3746L25.6335 21.3754ZM21.5343 33.2874C21.2639 32.5802 20.7311 32.2898 20.0855 32.2066C18.9239 32.0562 17.7567 31.9458 16.5911 31.8218C15.2367 31.677 13.8815 31.5394 12.5279 31.3898C12.1999 31.3538 12.0391 31.1482 12.0703 30.8618C12.1007 30.5866 12.3263 30.4194 12.6431 30.4522C14.0919 30.6034 15.5391 30.7762 16.9903 30.905C18.5639 31.045 20.1279 31.3666 21.7215 31.1858C22.0671 31.1466 22.4167 31.1362 22.7655 31.125C23.1095 31.1138 23.3263 31.2938 23.3359 31.5786C23.3455 31.861 23.1367 32.0522 22.7951 32.0738C22.5335 32.0906 22.2719 32.1058 22.0207 32.121C22.2007 32.5114 22.3711 32.8802 22.5535 33.2762C22.5695 33.2778 22.6215 33.2866 22.6727 33.2866C25.9055 33.2866 29.1383 33.2874 32.3711 33.2858C32.4519 33.2858 32.5479 33.2778 32.6103 33.2346C32.9535 32.997 33.2423 32.7106 33.3847 32.301C33.7247 31.3258 33.1999 30.3898 32.1151 30.0586C29.6743 29.3122 27.2343 28.565 24.7903 27.829C24.5231 27.7482 24.2335 27.705 23.9543 27.7042C21.2711 27.6954 18.5871 27.6978 15.9039 27.7018C15.7375 27.7018 15.5655 27.721 15.4071 27.7682C12.7799 28.5522 10.1535 29.3386 7.53033 30.1386C7.36393 30.189 7.18793 30.3186 7.09033 30.4618C6.65753 31.0946 6.58953 31.7778 6.93273 32.4714C7.25513 33.1218 7.83113 33.2946 8.51673 33.293C12.7319 33.2842 16.9479 33.289 21.1631 33.289C21.2679 33.289 21.3735 33.289 21.5327 33.289L21.5343 33.2874ZM22.6159 10.2514C22.6159 9.83938 22.6311 9.42738 22.6127 9.01698C22.5591 7.78418 21.5935 6.79298 20.3831 6.71218C19.1423 6.62898 17.9951 7.46738 17.8511 8.70098C17.7399 9.64898 17.7463 10.621 17.8103 11.5754C17.8983 12.8762 19.0063 13.7914 20.3143 13.7522C21.5495 13.7154 22.5551 12.7162 22.6127 11.4554C22.6311 11.0554 22.6159 10.6538 22.6159 10.2522V10.2514ZM11.9287 20.9258C11.8807 21.0594 11.8447 21.157 11.8111 21.2554C11.5247 22.105 11.2335 22.953 10.9535 23.805C10.7431 24.445 10.3775 24.9722 9.86553 25.4082C8.54553 26.5306 7.23033 27.6586 5.91353 28.785C5.83913 28.8482 5.77033 28.9178 5.69193 28.9914C6.31433 29.3778 6.95913 29.4122 7.59193 29.0658C8.97113 28.3098 10.3431 27.5418 11.7119 26.7674C12.1551 26.5162 12.4879 26.1562 12.6535 25.6578C12.7199 25.4586 12.7983 25.2586 12.9015 25.077C13.0263 24.8578 13.2359 24.7834 13.4735 24.8794C13.7071 24.9738 13.8327 25.1706 13.7599 25.413C13.4999 26.2818 13.0967 27.0586 12.2775 27.5418C12.1423 27.6218 12.0087 27.7042 11.8743 27.7858C11.9447 27.805 12.0031 27.7922 12.0607 27.7754C12.9695 27.5018 13.8759 27.2194 14.7887 26.9602C14.9999 26.9002 15.0703 26.8178 15.0687 26.5954C15.0575 25.2642 15.0639 23.9322 15.0623 22.601C15.0623 22.5274 15.0479 22.4538 15.0319 22.2978C14.8911 22.6434 14.7879 22.9082 14.6759 23.1682C14.5391 23.4842 14.2863 23.6034 14.0207 23.4874C13.7735 23.3802 13.6823 23.1186 13.7951 22.8178C13.8935 22.5538 14.0023 22.2938 14.1127 22.0154C13.3767 21.649 12.6631 21.293 11.9295 20.9274L11.9287 20.9258ZM25.9967 22.257C26.0423 22.3818 26.0743 22.481 26.1135 22.577C26.4863 23.5074 26.8919 24.4266 27.2239 25.3714C27.4871 26.1194 27.9631 26.6154 28.6487 26.9818C29.8871 27.6434 31.1039 28.3442 32.3311 29.0258C32.9879 29.3906 33.6407 29.4042 34.3159 28.9954C34.2383 28.9218 34.1879 28.869 34.1335 28.8218C32.8327 27.709 31.5391 26.5882 30.2279 25.4874C29.6343 24.989 29.2255 24.389 28.9943 23.649C28.7503 22.8666 28.4751 22.0946 28.2047 21.2922C27.4543 21.6202 26.7335 21.9354 25.9975 22.257H25.9967ZM24.9791 22.3282C24.9567 22.409 24.9423 22.4354 24.9423 22.4626C24.9407 23.8666 24.9375 25.2698 24.9487 26.6738C24.9487 26.761 25.0559 26.8962 25.1423 26.9266C25.5487 27.0714 25.9647 27.189 26.3783 27.3138C26.9591 27.4898 27.5399 27.665 28.1207 27.8402C28.0607 27.7426 27.9831 27.6906 27.9031 27.6442C27.2319 27.2594 26.7359 26.733 26.4559 25.993C26.0535 24.929 25.6135 23.8794 25.1887 22.8234C25.1279 22.6722 25.0615 22.5234 24.9783 22.3282H24.9791Z" fill="white"/>
<path d="M26.9659 30.8914C27.4499 30.8642 27.9331 30.8314 28.4171 30.8114C28.7819 30.7962 29.0019 30.9778 29.0059 31.2746C29.0099 31.5618 28.8115 31.7402 28.4619 31.7602C27.4731 31.817 26.4851 31.8738 25.4963 31.9306C25.1091 31.953 24.8755 31.7874 24.8619 31.481C24.8491 31.1818 25.0387 31.0082 25.4195 30.9834C25.9347 30.949 26.4499 30.921 26.9651 30.8898V30.8914H26.9659Z" fill="white"/>
</svg>
