<svg width="30" height="30" viewBox="0 0 30 30" fill="none" xmlns="http://www.w3.org/2000/svg">
<path d="M10 13.75C10 13.0596 10.5596 12.5 11.25 12.5H18.75C19.4404 12.5 20 13.0596 20 13.75C20 14.4404 19.4404 15 18.75 15H11.25C10.5596 15 10 14.4404 10 13.75Z" fill="#7C5E1F"/>
<path d="M11.25 17.5C10.5596 17.5 10 18.0596 10 18.75C10 19.4404 10.5596 20 11.25 20H15C15.6904 20 16.25 19.4404 16.25 18.75C16.25 18.0596 15.6904 17.5 15 17.5H11.25Z" fill="#7C5E1F"/>
<path fill-rule="evenodd" clip-rule="evenodd" d="M2.5 15C2.5 8.09644 8.09644 2.5 15 2.5C21.9036 2.5 27.5 8.09644 27.5 15C27.5 21.9036 21.9036 27.5 15 27.5H5C3.61929 27.5 2.5 26.3807 2.5 25V15ZM15 5C9.47715 5 5 9.47715 5 15V25H15C20.5228 25 25 20.5228 25 15C25 9.47715 20.5228 5 15 5Z" fill="#7C5E1F"/>
</svg>
