<svg width="30" height="30" viewBox="0 0 30 30" fill="none" xmlns="http://www.w3.org/2000/svg">
<path fill-rule="evenodd" clip-rule="evenodd" d="M8.44388 21.5532C13.7856 26.8949 18.8865 27.5991 20.6876 27.6654C23.4412 27.7668 26.0882 25.6882 27.1342 23.2475C27.3889 22.6532 27.3254 21.9382 26.8984 21.3914C25.3784 19.4448 23.2938 18.078 21.5189 16.8482C20.7758 16.3334 19.7659 16.4184 19.1213 17.063L17.4266 18.7576C16.5574 18.3641 15.0586 17.5613 13.7472 16.2499C12.4358 14.9385 11.6329 13.4396 11.2394 12.5704L12.9349 10.875C13.5789 10.2309 13.6627 9.22528 13.1554 8.48395C11.9648 6.74396 10.5783 4.52177 8.5688 3.05593C8.02295 2.65777 7.33247 2.61306 6.76238 2.85738C4.33288 3.89859 2.23063 6.56508 2.33162 9.30941C2.3979 11.1106 3.10214 16.2114 8.44388 21.5532ZM20.7796 25.1671C19.4725 25.119 15.0189 24.5927 10.2117 19.7854C5.40439 14.9781 4.87803 10.5245 4.82993 9.21747C4.77103 7.61694 6.06878 6.01693 7.40805 5.31631C8.71044 6.37254 9.70603 7.85802 10.8029 9.47139C9.86687 10.4075 8.1251 11.5631 8.74737 13.1016C9.10037 13.9744 10.0939 16.1322 11.9794 18.0176C13.8649 19.9031 16.0226 20.8967 16.8954 21.2497C18.4327 21.8714 19.5862 20.1336 20.5216 19.1982C22.1088 20.2957 23.5572 21.308 24.6693 22.613C23.9724 23.9352 22.3602 25.2253 20.7796 25.1671Z" fill="#7C5E1F"/>
</svg>
