<svg width="25" height="25" viewBox="0 0 25 25" fill="none" xmlns="http://www.w3.org/2000/svg">
<path d="M0.438477 24.0406C0.96109 22.1339 1.45885 20.2746 1.98824 18.424C2.09743 18.0422 2.05865 17.747 1.87604 17.3946C-1.11731 11.6078 1.07781 4.52805 6.81074 1.43078C13.424 -2.14167 21.7173 1.2636 23.9011 8.4484C25.8067 14.7179 22.2768 21.3857 16.0069 23.3075C12.8908 24.2627 9.86622 23.9634 6.95344 22.5017C6.84124 22.4452 6.67896 22.4275 6.55734 22.4588C4.60846 22.9592 2.66222 23.4705 0.715221 23.9788C0.636904 23.9992 0.557081 24.0142 0.438477 24.0406ZM3.30268 21.2215C4.5004 20.9079 5.64804 20.6123 6.79229 20.3036C6.98695 20.2509 7.13493 20.278 7.30662 20.3808C9.51606 21.7031 11.8968 22.1388 14.4195 21.6376C19.7691 20.5743 23.2358 15.408 22.2259 10.0509C21.2225 4.72573 15.9907 1.17022 10.6501 2.18382C3.96913 3.45157 0.489307 10.886 3.84977 16.7816C4.19768 17.3923 4.26884 17.8935 4.05159 18.5369C3.7594 19.4018 3.55608 20.2964 3.30268 21.2215Z" fill="#7C5E1F"/>
<path d="M8.62176 6.43543C9.12668 6.31042 9.37405 6.61503 9.55064 7.07213C9.82136 7.77133 10.1166 8.46149 10.414 9.15015C10.5176 9.39 10.5078 9.60085 10.3523 9.80718C10.1113 10.1272 9.87746 10.4529 9.62557 10.7643C9.4727 10.9533 9.45764 11.1258 9.58114 11.3347C10.5537 12.9805 11.9186 14.1684 13.6999 14.8771C13.9439 14.9742 14.1367 14.929 14.2997 14.7253C14.5972 14.3537 14.9082 13.9926 15.1932 13.6123C15.3604 13.389 15.5554 13.3122 15.8002 13.4263C16.647 13.8209 17.493 14.2189 18.3278 14.638C18.4298 14.6892 18.5213 14.8778 18.5194 15.0013C18.5002 16.2706 18.1259 16.879 16.7705 17.448C16.0012 17.771 15.203 17.6946 14.4104 17.4739C11.5334 16.6738 9.41359 14.8684 7.71811 12.4884C7.19135 11.7493 6.71656 10.9868 6.51474 10.0903C6.22444 8.80036 6.54223 7.68172 7.49257 6.74832C7.80132 6.44484 8.17521 6.38535 8.62176 6.4358V6.43543Z" fill="#7C5E1F"/>
</svg>
