<svg width="40" height="40" viewBox="0 0 40 40" fill="none" xmlns="http://www.w3.org/2000/svg">
<path d="M20.1247 26.2815C20.1247 26.1407 20.1247 26.0255 20.1247 25.9103C20.1247 21.3991 20.1231 16.8871 20.1255 12.3759C20.1263 10.9711 21.0167 9.90786 22.3711 9.67266C23.8807 9.41026 25.3703 10.6375 25.4023 12.1687C25.4087 12.4791 25.2583 12.6799 25.0127 12.6895C24.7687 12.6983 24.6087 12.5135 24.5863 12.1959C24.5127 11.1647 23.7231 10.4375 22.7031 10.4615C21.7199 10.4847 20.9487 11.2775 20.9423 12.2911C20.9351 13.3775 20.9423 14.4639 20.9447 15.5495C20.9447 15.5671 20.9559 15.5847 20.9679 15.6199H29.2695C29.2695 15.5175 29.2695 15.4143 29.2695 15.3111C29.2695 14.2839 29.2583 13.2559 29.2751 12.2287C29.2967 10.9095 30.2559 9.84786 31.5687 9.66146C32.7951 9.48706 34.0119 10.2503 34.4039 11.4535C34.4783 11.6831 34.5143 11.9295 34.5391 12.1711C34.5703 12.4735 34.4015 12.6807 34.1511 12.6895C33.9159 12.6975 33.7591 12.5223 33.7343 12.2231C33.6583 11.3143 33.0599 10.6247 32.2207 10.4807C31.4103 10.3415 30.5951 10.7511 30.2647 11.5039C30.1543 11.7559 30.0903 12.0495 30.0895 12.3247C30.0799 14.6335 30.0927 16.9431 30.0927 19.2527C30.0927 21.4639 30.0855 23.6751 30.0815 25.8871C30.0815 26.0031 30.0815 26.1191 30.0815 26.3063C30.4311 26.2423 30.7599 26.2143 31.0671 26.1191C31.4855 25.9895 31.8895 25.8119 32.2967 25.6495C32.9039 25.4079 33.5359 25.2967 34.1855 25.2831C34.5503 25.2751 34.7439 25.4263 34.7415 25.6967C34.7391 25.9615 34.5639 26.0935 34.2071 26.0975C33.5431 26.1047 32.9087 26.2431 32.3063 26.5263C30.6007 27.3287 28.9007 27.3175 27.1839 26.5383C25.8207 25.9191 24.4359 25.9215 23.0687 26.5447C21.3759 27.3167 19.6935 27.3175 17.9975 26.5463C16.6231 25.9215 15.2335 25.9223 13.8551 26.5495C12.1615 27.3199 10.4711 27.3279 8.78309 26.5399C8.16149 26.2495 7.51109 26.1031 6.82709 26.0967C6.49669 26.0935 6.32469 25.9535 6.32229 25.6967C6.31989 25.4399 6.49829 25.2823 6.81829 25.2831C7.58069 25.2855 8.31989 25.4207 9.00789 25.7527C10.5439 26.4935 12.0591 26.4743 13.6135 25.7687C15.1423 25.0743 16.7007 25.1159 18.2527 25.7591C18.7191 25.9527 19.2079 26.0911 19.6911 26.2415C19.8159 26.2807 19.9567 26.2679 20.1223 26.2823L20.1247 26.2815ZM29.2535 22.9759H20.9607V26.2791C21.5775 26.2559 22.1335 26.0839 22.6655 25.8279C23.4543 25.4471 24.2863 25.2783 25.1599 25.2783C26.0559 25.2783 26.8975 25.4895 27.7055 25.8695C28.1911 26.0975 28.7023 26.2367 29.2535 26.2663V22.9759ZM29.2527 19.7199H20.9551V22.1191H29.2527V19.7199ZM29.2535 18.8639V16.4759H20.9607V18.8639H29.2535Z" fill="white"/>
<path d="M29.7274 33.6122C28.857 33.6386 28.0346 33.4258 27.2394 33.0634C25.8338 32.4218 24.4226 32.4274 23.0146 33.0674C21.3722 33.813 19.725 33.8258 18.0802 33.0794C16.641 32.4266 15.2106 32.4298 13.7722 33.0826C12.1706 33.8098 10.5538 33.8226 8.94663 33.109C8.25783 32.8026 7.55703 32.5946 6.79783 32.6018C6.49863 32.6042 6.32583 32.4426 6.32423 32.197C6.32263 31.9466 6.49303 31.7962 6.79303 31.7906C7.58823 31.7762 8.34983 31.9378 9.06583 32.2778C10.5658 32.9898 12.0522 32.9754 13.5634 32.2906C15.1354 31.5794 16.7338 31.5842 18.3058 32.297C19.7858 32.9682 21.245 32.9802 22.725 32.309C24.3282 31.5818 25.9426 31.5906 27.549 32.3106C28.9962 32.9594 30.4442 32.9794 31.8906 32.3226C32.6402 31.9818 33.4162 31.7802 34.2426 31.7898C34.5666 31.7938 34.7426 31.9378 34.7418 32.1954C34.7418 32.449 34.5618 32.6042 34.2402 32.6026C33.5122 32.5978 32.829 32.7722 32.1754 33.0866C31.405 33.4578 30.5914 33.637 29.7274 33.613V33.6122Z" fill="white"/>
<path d="M29.7274 30.3691C28.8626 30.3779 28.0458 30.1835 27.2602 29.8203C25.8466 29.1667 24.425 29.1723 23.0082 29.8163C21.353 30.5691 19.7018 30.5675 18.0474 29.8147C16.6298 29.1699 15.2122 29.1771 13.7954 29.8227C12.1626 30.5659 10.521 30.5755 8.88903 29.8331C8.22823 29.5323 7.54903 29.3571 6.82423 29.3459C6.49223 29.3411 6.32263 29.1963 6.32423 28.9403C6.32583 28.6827 6.50103 28.5435 6.82903 28.5411C7.59303 28.5339 8.32983 28.6763 9.01863 29.0075C10.5554 29.7459 12.0722 29.7219 13.625 29.0179C15.1442 28.3291 16.7114 28.3291 18.2306 29.0179C19.7834 29.7219 21.2874 29.7187 22.8402 29.0139C24.349 28.3283 25.909 28.3307 27.4202 29.0091C28.9834 29.7115 30.5114 29.7363 32.0594 29.0027C32.7498 28.6755 33.4858 28.5331 34.2498 28.5419C34.565 28.5459 34.7314 28.6739 34.7434 28.9219C34.7562 29.1803 34.5842 29.3435 34.2626 29.3459C33.5058 29.3507 32.797 29.5371 32.1154 29.8603C31.3346 30.2307 30.633 30.3691 29.729 30.3691H29.7274Z" fill="white"/>
</svg>
