<svg width="40" height="40" viewBox="0 0 40 40" fill="none" xmlns="http://www.w3.org/2000/svg">
<path d="M34.6741 15.8339C34.5093 16.0843 34.2157 16.1467 33.9301 15.9643C31.9069 14.6635 29.8853 13.3603 27.8669 12.0531C25.7325 10.6707 23.6045 9.28034 21.4685 7.90194C20.0373 6.97794 18.5957 6.97634 17.1629 7.90354C14.3565 9.72114 11.5533 11.5451 8.74373 13.3579C8.53573 13.4931 8.44933 13.6331 8.44933 13.8875C8.45813 19.3987 8.45413 24.9091 8.45573 30.4203C8.45653 31.9139 9.34613 32.7987 10.8429 32.7987C14.9181 32.7995 18.9933 32.7987 23.0677 32.7987H23.4453V32.4283C23.4453 29.6307 23.4461 26.8331 23.4453 24.0355C23.4453 23.0987 23.0101 22.6667 22.0677 22.6667C20.2309 22.6667 18.3941 22.6659 16.5573 22.6667C15.6669 22.6675 15.2069 23.1227 15.2069 24.0067C15.2053 26.1075 15.2061 30.6195 15.2061 32.7211C15.2061 32.8155 15.2101 32.9115 15.2029 33.0051C15.1765 33.2963 14.9685 33.5003 14.6917 33.5123C14.4197 33.5235 14.1821 33.3291 14.1365 33.0491C14.1213 32.9563 14.1269 32.8595 14.1269 32.7651C14.1269 30.6539 14.1261 26.1299 14.1269 24.0187C14.1285 22.5251 15.0637 21.5883 16.5565 21.5875C18.4141 21.5859 20.2717 21.5851 22.1301 21.5875C23.5877 21.5891 24.5237 22.5235 24.5253 23.9827C24.5285 26.7803 24.5261 29.5787 24.5261 32.3755V32.7755C24.6405 32.7851 24.7317 32.7987 24.8221 32.7987C25.8773 32.8003 26.9333 32.8043 27.9893 32.7987C29.2957 32.7923 30.1773 31.9651 30.2749 30.6659C30.3013 30.3171 30.5213 30.0859 30.8221 30.0923C31.1373 30.0987 31.3517 30.3523 31.3509 30.7163C31.3477 32.3699 29.9701 33.7699 28.2437 33.8731C28.1493 33.8787 28.0541 33.8811 27.9597 33.8811C22.2269 33.8811 16.4949 33.8827 10.7629 33.8803C9.08373 33.8795 7.77093 32.8523 7.44453 31.2755C7.38133 30.9683 7.37413 30.6459 7.37413 30.3307C7.37013 25.1371 7.37093 19.9419 7.37093 14.7483V14.2723C7.23013 14.3563 7.13493 14.4083 7.04373 14.4675C6.31733 14.9371 5.59333 15.4083 4.86693 15.8795C4.39333 16.1859 4.18853 16.1507 3.86133 15.7067V15.3899C3.99093 15.2571 4.10293 15.0947 4.25493 14.9955C8.37493 12.3147 12.4925 9.62834 16.6261 6.96914C18.3925 5.83234 20.2037 5.84354 21.9893 6.95634C22.1989 7.08754 22.4093 7.22034 22.6173 7.35314L22.6845 7.39634L23.7205 8.06914L23.8085 8.12674C24.1237 8.33234 24.4381 8.53874 24.7541 8.74274C24.7853 8.76274 24.8173 8.78354 24.8517 8.80354L24.8549 8.80594L26.2989 9.74354C26.3269 9.76834 26.3589 9.79154 26.3949 9.81474C27.5813 10.5811 28.7677 11.3499 29.9533 12.1187L34.2821 14.9267C34.3613 14.9787 34.4437 15.0267 34.5189 15.0843C34.7845 15.2875 34.8429 15.5771 34.6733 15.8339H34.6741Z" fill="white"/>
<path d="M36.2972 23.2327C36.282 23.7583 35.8236 24.0039 35.4676 23.7767C35.3708 23.7151 35.29 23.6279 35.2044 23.5503C33.142 21.6847 30.0916 21.7055 28.042 23.5871C27.898 23.7199 27.6804 23.8503 27.5012 23.8439C27.3444 23.8383 27.1484 23.6687 27.0532 23.5183C26.9116 23.2943 27.0284 23.0743 27.2092 22.8975C27.938 22.1839 28.7836 21.6551 29.7636 21.3751C32.1116 20.7047 34.202 21.1927 36.0132 22.8343C36.1516 22.9599 36.2364 23.1455 36.2964 23.2319L36.2972 23.2327Z" fill="white"/>
<path d="M32.0579 23.9326C32.5811 23.9382 33.3755 24.2502 34.0435 24.8742C34.3179 25.1302 34.3579 25.447 34.1555 25.6814C33.9419 25.9286 33.6179 25.9246 33.3179 25.671C32.2531 24.7718 31.0307 24.7742 29.9699 25.6782C29.6851 25.9206 29.3699 25.9286 29.1539 25.6974C28.9299 25.4574 28.9691 25.1422 29.2563 24.8686C29.8963 24.2606 30.7595 23.9238 32.0571 23.9318L32.0579 23.9326Z" fill="white"/>
<path d="M31.3544 17.8422C31.3544 18.179 31.36 18.5158 31.3528 18.8518C31.3456 19.2206 31.124 19.4526 30.8016 19.4462C30.4896 19.4398 30.28 19.2158 30.2776 18.8598C30.272 18.1654 30.272 17.471 30.2776 16.7766C30.28 16.411 30.5072 16.1726 30.8256 16.1798C31.1328 16.187 31.3456 16.4174 31.3528 16.7686C31.36 17.1262 31.3544 17.4838 31.3544 17.8414V17.8422Z" fill="white"/>
<path d="M31.6442 28.4444C31.0866 28.4428 30.6474 28.002 30.6426 27.4388C30.6378 26.886 31.085 26.4284 31.637 26.422C32.1834 26.4148 32.6538 26.8716 32.661 27.4164C32.669 27.986 32.2138 28.446 31.6442 28.4452V28.4444Z" fill="white"/>
</svg>
