<svg width="40" height="40" viewBox="0 0 40 40" fill="none" xmlns="http://www.w3.org/2000/svg">
<path d="M14.4296 34.4731H6.51685C6.26165 34.3203 6.18405 34.0915 6.16325 33.7995C6.05365 32.2059 5.92565 30.6131 5.80325 29.0203C5.61685 26.6027 5.43045 24.1843 5.24325 21.7667C5.18965 21.0779 5.13445 20.3891 5.08085 19.7099C4.65205 19.5891 4.55365 19.4627 4.55285 19.0507C4.55125 18.4923 4.55205 17.9339 4.55285 17.3755C4.55365 16.8931 4.71125 16.7307 5.18805 16.7299C6.33365 16.7283 7.47845 16.7299 8.62405 16.7299C8.72645 16.7299 8.82885 16.7299 8.97205 16.7299C8.67845 15.5547 8.39525 14.4219 8.10805 13.2731C7.98325 13.2731 7.87845 13.2731 7.77445 13.2731C6.89845 13.2731 6.02245 13.2747 5.14645 13.2731C4.72645 13.2723 4.55445 13.0979 4.55205 12.6739C4.54965 12.1155 4.55125 11.5571 4.55205 10.9987C4.55205 10.4755 4.70165 10.3235 5.21525 10.3235C6.74565 10.3235 8.27605 10.3235 9.80645 10.3235C10.26 10.3235 10.3864 10.4203 10.4936 10.8515C10.7096 11.7187 10.924 12.5867 11.1408 13.4539C11.4128 14.5427 11.6864 15.6307 11.9576 16.7131H14.568C14.5184 16.2451 14.4696 15.7979 14.4224 15.3499C14.3928 15.0643 14.5032 14.8723 14.7816 14.7667C14.8528 14.7395 14.9272 14.6331 14.94 14.5539C14.9976 14.2035 15.0433 13.8491 15.0704 13.4955C15.0785 13.3907 15.0441 13.2515 14.9752 13.1771C14.128 12.2571 14.2449 10.9395 15.2409 10.1891C15.3225 10.1275 15.3937 9.99545 15.3952 9.89545C15.4088 8.76985 16.1081 7.97545 17.2257 7.86025C17.3921 7.84345 17.4464 7.77945 17.5024 7.63945C17.7576 6.99465 18.2281 6.57065 18.9057 6.43385C19.2153 6.37145 19.5481 6.42345 19.8649 6.42345C20.3801 4.66825 22.5545 4.34665 23.5249 5.87545C23.5329 5.87145 23.5433 5.86905 23.5489 5.86265C23.5793 5.82585 23.6089 5.78825 23.6369 5.74985C24.0881 5.13225 24.7001 4.82825 25.4577 4.91145C26.2369 4.99705 26.7857 5.42905 27.0849 6.16345C27.1952 6.43385 27.2808 6.45465 27.528 6.27545C28.7136 5.41465 30.348 6.04665 30.6384 7.48025C30.6656 7.61625 30.6753 7.75625 30.6945 7.90265C31.5648 7.75305 32.2745 7.99145 32.7745 8.69545C33.2817 9.40985 33.2432 10.1691 32.8208 10.9307C33.5512 11.2131 33.9353 11.7595 34.1273 12.4635V13.0987C34.0193 13.3515 33.9616 13.6475 33.7913 13.8459C33.5401 14.1379 33.5656 14.4243 33.6136 14.6475C33.8296 14.8227 33.9785 14.9427 34.1273 15.0635V15.5259C34.1112 15.5699 34.0857 15.6131 34.0801 15.6587C33.8649 17.5115 33.6512 19.3643 33.4384 21.2171C33.1985 23.3091 32.9609 25.4003 32.7201 27.4923C32.4769 29.6027 32.2288 31.7131 31.9912 33.8243C31.9608 34.0963 31.8849 34.3251 31.6425 34.4747H16.9136C16.6792 34.3379 16.5617 34.1411 16.5561 33.8635C16.5521 33.6531 16.5097 33.4435 16.4849 33.2331C16.2425 31.1403 16.0009 29.0475 15.7585 26.9539C15.6761 26.2411 15.5928 25.5275 15.5105 24.8147C15.4401 25.1123 15.4177 25.4091 15.3945 25.7051C15.1865 28.4011 14.9768 31.0979 14.7752 33.7947C14.7536 34.0803 14.6832 34.3187 14.4296 34.4755V34.4731ZM32.6249 14.7427C32.6017 14.5163 32.5864 14.3075 32.5584 14.1003C32.5272 13.8715 32.5912 13.6931 32.7712 13.5379C33.0905 13.2643 33.2201 12.9163 33.0921 12.5027C32.9617 12.0819 32.668 11.8435 32.2288 11.8115C31.8272 11.7819 31.72 11.4699 31.6032 11.1787C31.5008 10.9227 31.6184 10.7235 31.8208 10.5467C32.0848 10.3171 32.1992 10.0131 32.1369 9.66425C32.0081 8.93625 31.2369 8.61945 30.6017 9.02665C30.2608 9.24505 30.0984 9.23385 29.8056 8.97065C29.508 8.70345 29.4824 8.59225 29.6232 8.18265C29.7744 7.74345 29.6289 7.29305 29.2529 7.03785C28.8865 6.78905 28.3624 6.77465 28.0849 7.10825C27.7353 7.52825 27.3792 7.53545 26.9456 7.31785C26.8864 7.28825 26.8192 7.27145 26.7536 7.25625C26.4288 7.18105 26.2472 7.00105 26.1968 6.64985C26.1392 6.24745 25.792 5.95225 25.3897 5.88825C25.0128 5.82825 24.564 6.00585 24.4233 6.36905C24.2449 6.82985 23.9169 6.90985 23.4921 6.91865C22.9305 6.92985 22.9121 6.93305 22.6849 6.43305C22.5145 6.05785 22.1448 5.83225 21.736 5.85465C21.3384 5.87625 20.9729 6.12745 20.8753 6.50905C20.8225 6.71385 20.8449 6.94505 20.8689 7.16025C20.8937 7.38585 20.8393 7.56105 20.6529 7.68585C20.4657 7.81065 20.2712 7.80345 20.0841 7.68105C20.0121 7.63385 19.9489 7.57225 19.8761 7.52585C19.2425 7.11705 18.4016 7.53705 18.3576 8.28265C18.3249 8.84905 18.1377 8.99385 17.5905 8.87545C16.8392 8.71225 16.2281 9.35225 16.4233 10.0971C16.5424 10.5515 16.4681 10.7051 16.0433 10.8771C15.6841 11.0219 15.4576 11.2771 15.4088 11.6659C15.3584 12.0643 15.5 12.3939 15.84 12.6075C16.1288 12.7891 16.2001 13.0123 16.1241 13.3411C16.0201 13.7947 15.9648 14.2595 15.884 14.7435H32.6249V14.7427ZM14.4216 18.6907H15.3833V17.7315H5.55685V18.7131H7.48965V19.6883H6.09205C6.09205 19.7731 6.08885 19.8291 6.09205 19.8843C6.19845 21.3147 6.32645 22.7435 6.40005 24.1755C6.42645 24.6867 6.61605 25.0467 6.98165 25.3867C7.67845 26.0347 8.55365 26.1171 9.31205 25.5443C9.75765 25.2083 10.1976 24.8651 10.6352 24.5187C11.4488 23.8747 12.3424 23.7283 13.3216 24.0635C13.7 24.1931 14.0808 24.3123 14.4968 24.4483C14.6192 22.8427 14.7393 21.2763 14.8616 19.6731H14.4216V18.6923V18.6907ZM22.8008 15.7579C22.9576 21.6867 23.1136 27.5803 23.2689 33.4763H25.2656C25.4208 27.5643 25.5753 21.6635 25.7305 15.7579H22.8008ZM18.8873 15.7571C19.3553 21.6835 19.8209 27.5787 20.2857 33.4667H22.2825C22.1265 27.5499 21.9705 21.6555 21.8153 15.7571H18.8873ZM29.6456 15.7643H26.7177C26.5625 21.6763 26.4081 27.5691 26.2529 33.4763H28.248C28.7136 27.5731 29.1792 21.6779 29.6456 15.7643ZM30.6353 15.7619C30.1697 21.6619 29.7041 27.5579 29.2376 33.4723H31.0329C31.7145 27.5675 32.3937 21.6747 33.076 15.7619H30.6353ZM17.8993 15.7683H15.4585C15.4809 15.9459 15.4993 16.0979 15.5185 16.2499C15.5385 16.4075 15.5577 16.5643 15.5761 16.7115C16.3113 16.7683 16.3857 16.8499 16.3857 17.5651C16.3857 18.0275 16.3729 18.4899 16.3897 18.9515C16.4033 19.3163 16.3153 19.5987 15.9129 19.7059C16.444 24.3059 16.9729 28.8891 17.5009 33.4659H19.2961C18.8297 27.5531 18.3649 21.6651 17.8993 15.7683ZM13.8016 33.4779C13.9328 31.7987 14.0632 30.1491 14.1824 28.4995C14.1872 28.4307 14.0968 28.3171 14.024 28.2867C13.732 28.1643 13.4296 28.0667 13.132 27.9595C12.34 27.6731 11.6592 27.8283 11.0992 28.4683C10.7888 28.8227 10.4112 29.0779 9.96805 29.2403C9.40485 29.4467 8.83525 29.4003 8.26085 29.3067C7.78325 29.2291 7.30325 29.1691 6.79445 29.0979C6.90965 30.5867 7.02085 32.0307 7.13285 33.4787H13.8024L13.8016 33.4779ZM14.2736 27.3163C14.3224 26.7075 14.3736 26.1443 14.4049 25.5795C14.408 25.5243 14.3008 25.4339 14.228 25.4083C13.8304 25.2643 13.4264 25.1419 13.028 25.0011C12.364 24.7659 11.7664 24.8691 11.2168 25.3107C10.7672 25.6723 10.312 26.0267 9.84965 26.3723C9.19685 26.8603 8.46085 27.0355 7.66965 26.8387C7.29765 26.7467 6.95045 26.5563 6.59045 26.4091C6.62565 26.9019 6.65365 27.4107 6.70805 27.9163C6.71605 27.9899 6.83925 28.0955 6.92245 28.1091C7.50085 28.2043 8.08565 28.2619 8.66245 28.3643C9.38405 28.4931 9.95045 28.2651 10.4432 27.7331C11.24 26.8723 12.2224 26.6451 13.3368 26.9891C13.6384 27.0819 13.9336 27.1971 14.2736 27.3163ZM5.55285 11.3051V12.2891C5.67205 12.2891 5.77605 12.2891 5.88005 12.2891C6.70725 12.2891 7.53525 12.2883 8.36245 12.2891C8.77045 12.2891 8.90565 12.3971 9.00645 12.7987C9.33445 14.1027 9.66085 15.4075 9.98725 16.7091H10.9152C10.9088 16.6403 10.9112 16.5915 10.9 16.5467C10.4792 14.8595 10.0544 13.1731 9.63845 11.4843C9.59765 11.3195 9.51125 11.3019 9.37205 11.3027C8.59285 11.3067 7.81365 11.3043 7.03365 11.3043C6.54485 11.3043 6.05685 11.3043 5.55285 11.3043V11.3051Z" fill="white"/>
<path d="M11.4688 19.6625V18.7129H13.4047V19.6625H11.4688Z" fill="white"/>
<path d="M8.50586 19.6671V18.7207H10.4435V19.6671H8.50586Z" fill="white"/>
</svg>
